# xmcd CD database file
#
# Track frame offsets:
#	150
#	17609
#	33666
#	51107
#	66043
#	78941
#	97413
#	113388
#	130623
#	152045
#	166578
#	183780
#	198734
#
# Disc length: 2896 seconds
#
# Revision: 0
# Processed by: cddbd v1.5.1PL0 Copyright (c) Steve Scherf et al.
# Submitted via: CDex 1.51
#
DISCID=9d0b4e0d
DTITLE=Adrienn Fehér - Adrienn Fehér
DYEAR=2003
DGENRE=Ungarisch
TTITLE0=Visszatérö út
TTITLE1=Jó így
TTITLE2=Búcsú
TTITLE3=Jobb Légy!
TTITLE4=Enyém-Tiéd
TTITLE5=Szerelem Kell
TTITLE6=Ne Magyarázz!
TTITLE7=Zakatol A Szívem
TTITLE8=Egyszerüen Fáj
TTITLE9=Ég veled!
TTITLE10=Tünj El!
TTITLE11=Hold On
TTITLE12=Szerelem Kell (Elektro World)
EXTD=YEAR: 2003
EXTT0=
EXTT1=
EXTT2=
EXTT3=
EXTT4=
EXTT5=
EXTT6=
EXTT7=
EXTT8=
EXTT9=
EXTT10=
EXTT11=
EXTT12=
PLAYORDER=
